<svg width="137" height="34" viewBox="0 0 137 34" fill="none" xmlns="http://www.w3.org/2000/svg">
<path d="M103.388 33.4043H104.504L105.217 32.3483H107.207L107.355 33.4043H108.417L107.671 28.6624H106.676L103.388 33.4043ZM105.835 31.4268L106.871 29.8731L107.086 31.4268H105.835Z" fill="url(#paint0_linear)"/>
<path d="M109.043 33.4043H110.078L111.342 28.696H110.307L109.043 33.4043Z" fill="url(#paint1_linear)"/>
<path d="M111.255 33.4043H112.29L112.694 31.8977H113.467L114.193 33.4043H115.37L114.57 31.7968C115.072 31.6802 115.45 31.4773 115.706 31.188C115.961 30.8988 116.089 30.5412 116.089 30.1152C116.089 29.7251 115.968 29.4089 115.726 29.1668C115.569 29.0099 115.369 28.8921 115.124 28.8137C114.88 28.7352 114.583 28.696 114.233 28.696H112.519L111.255 33.4043ZM112.942 30.9762L113.306 29.6309H114.173C114.5 29.6309 114.729 29.6959 114.859 29.8249C114.957 29.9235 115.007 30.0479 115.007 30.1993C115.007 30.3293 114.977 30.4415 114.919 30.5378C114.861 30.6342 114.78 30.7138 114.677 30.7788C114.574 30.8438 114.453 30.8921 114.314 30.9257C114.175 30.9594 114.025 30.9762 113.864 30.9762H112.942Z" fill="url(#paint2_linear)"/>
<path d="M116.143 33.4043H119.525L119.78 32.4627H117.434L118.442 28.696H117.407L116.143 33.4043Z" fill="url(#paint3_linear)"/>
<path d="M120.399 33.4043H121.435L122.699 28.696H121.663L120.399 33.4043Z" fill="url(#paint4_linear)"/>
<path d="M122.611 33.4043H123.633L124.46 30.317L125.886 33.4043H126.767L128.031 28.696H127.009L126.202 31.6892L124.83 28.696H123.875L122.611 33.4043Z" fill="url(#paint5_linear)"/>
<path d="M127.896 33.4043H131.446L131.695 32.4828H129.167L129.436 31.4873H131.621L131.87 30.5793H129.685L129.94 29.6174H132.428L132.677 28.696H129.16L127.896 33.4043Z" fill="url(#paint6_linear)"/>
<path d="M134.27 33.4716C134.517 33.4716 134.753 33.4368 134.98 33.3673C135.206 33.2978 135.404 33.1958 135.575 33.0613C135.745 32.9267 135.882 32.7619 135.985 32.5669C136.088 32.3719 136.14 32.151 136.14 31.9044C136.14 31.734 136.11 31.5837 136.052 31.4537C135.994 31.3237 135.914 31.2093 135.813 31.1107C135.713 31.012 135.594 30.9246 135.457 30.8483C135.32 30.7722 135.171 30.7004 135.01 30.6331C134.848 30.5658 134.715 30.5076 134.61 30.4583C134.504 30.4089 134.42 30.3618 134.358 30.317C134.295 30.2722 134.25 30.2262 134.223 30.1791C134.196 30.132 134.183 30.0771 134.183 30.0143C134.183 29.8978 134.242 29.789 134.361 29.6881C134.48 29.5872 134.649 29.5368 134.869 29.5368C135.097 29.5368 135.298 29.5793 135.47 29.6645C135.643 29.7498 135.819 29.8753 135.998 30.0412L136.711 29.3283C136.509 29.113 136.267 28.9426 135.985 28.817C135.702 28.6915 135.357 28.6287 134.949 28.6287C134.698 28.6287 134.46 28.6646 134.233 28.7363C134.007 28.8081 133.809 28.9112 133.638 29.0458C133.468 29.1803 133.332 29.3428 133.231 29.5334C133.131 29.724 133.08 29.9403 133.08 30.1825C133.08 30.3573 133.112 30.5098 133.174 30.6398C133.237 30.7699 133.322 30.8854 133.43 30.9862C133.537 31.0871 133.661 31.1746 133.8 31.2485C133.939 31.3225 134.084 31.3909 134.237 31.4537C134.394 31.5165 134.524 31.5737 134.627 31.6252C134.73 31.6768 134.812 31.7261 134.872 31.7732C134.933 31.8203 134.975 31.8674 135 31.9145C135.024 31.9615 135.037 32.0142 135.037 32.0725C135.037 32.2205 134.97 32.3393 134.835 32.429C134.701 32.5187 134.528 32.5636 134.317 32.5636C134.048 32.5636 133.809 32.5109 133.598 32.4055C133.387 32.3001 133.188 32.1465 132.999 31.9447L132.22 32.6039C132.668 33.1823 133.351 33.4716 134.27 33.4716Z" fill="url(#paint7_linear)"/>
<path d="M45.8921 18.0445H47.0308C54.8893 18.0445 56.977 14.1343 56.977 11.1581C56.977 7.57642 53.9557 5.08254 47.7079 5.08254C46.9128 5.08254 44.8251 5.14411 42.7682 5.14411C40.7984 5.14411 38.6337 5.11336 37.4591 5.05688V5.66751C39.3108 5.7548 39.6545 6.07294 39.6545 8.31534V23.5864C39.6545 25.8288 39.3365 26.1418 37.4591 26.2341V26.8499C39.1262 26.8191 41.0959 26.7575 42.9784 26.7575C45.533 26.7575 47.9336 26.8191 49.3135 26.8499V26.1418C46.4768 26.1418 45.8921 25.798 45.8921 23.2733V18.0445ZM45.8921 17.4287V8.31534C45.8921 6.19091 46.1793 5.66751 47.5591 5.66751C49.7341 5.66751 50.5138 7.60724 50.5138 11.4866C50.5138 14.6321 49.8726 17.4287 46.7333 17.4287H45.8921Z" fill="url(#paint8_linear)"/>
<path d="M75.4964 18.8552C74.5064 24.4177 71.8647 26.1418 69.8334 26.1418H68.8126C67.2224 26.1418 66.9352 25.9057 66.9352 24.2073V16.1972H67.2532C69.5667 16.1972 71.1568 17.9829 71.5313 20.2664H72.2391C72.0904 17.9213 72.0442 16.9001 72.0442 15.8944C72.0442 15.4634 72.0288 15.0426 72.0288 14.514C72.0288 13.7905 72.0596 12.8772 72.1468 11.5225H71.4441C71.0645 13.3133 69.5667 15.5814 67.2532 15.5814H66.9352V7.69955C66.9352 6.01137 67.2224 5.75989 68.8126 5.75989H69.2178C71.7416 5.75989 74.1165 7.33525 74.8808 12.4512H75.5836C75.5221 11.9278 75.4964 11.0863 75.4964 10.2242C75.4964 9.20303 75.5529 7.11458 75.7068 5.05179C73.8037 5.1441 71.1568 5.1441 69.2794 5.1441C67.0686 5.1441 62.0826 5.1441 58.5022 5.05179V5.66751C60.354 5.75479 60.6976 6.07293 60.6976 8.31533V23.5915C60.6976 25.8288 60.3796 26.1418 58.5022 26.2341V26.8499C62.0826 26.7575 67.0686 26.7575 69.2794 26.7575C71.3363 26.7575 74.2346 26.7575 76.3223 26.8499C76.112 24.823 76.112 22.7038 76.112 21.6826C76.112 20.5691 76.1427 19.5941 76.1992 18.8552H75.4964Z" fill="url(#paint9_linear)"/>
<path d="M101.905 25.7107C100.869 27.2912 99.6994 27.948 97.4424 28.4406C95.8522 28.7742 94.2262 28.882 92.1538 28.882C90.5893 28.882 88.7684 28.8204 86.5165 28.7588C88.3785 28.2405 89.3429 27.5068 91.1741 27.2604C97.7913 27.0757 102.403 22.4985 102.403 15.7558C102.403 8.7156 97.7605 4.6207 90.7996 4.6207C83.9619 4.6207 79.1658 9.239 79.1658 16.115C79.1658 22.6011 83.1053 26.5933 89.1736 27.1835C87.9425 27.6196 86.9679 28.22 85.4444 28.6049C84.6647 28.261 83.7773 28.0507 83.1053 28.0507C81.9614 28.0507 81.4074 28.415 81.4074 28.9948C81.4074 29.6414 82.023 29.9288 82.8489 29.9288C83.6593 29.9288 84.6339 29.6106 85.4444 29.1642C85.5983 29.1642 85.9265 29.2822 86.183 29.3745C89.7173 30.8473 92.9181 32.6382 96.4063 32.6382C97.8477 32.6382 99.3199 32.2584 100.253 31.5503C101.546 30.5753 102.28 28.5484 102.49 25.8749L101.905 25.7107ZM85.6291 15.997C85.6291 9.62896 87.5988 5.17491 90.6765 5.17491C93.5645 5.17491 95.9395 9.33132 95.9395 15.879C95.9395 22.2419 93.9697 26.7011 90.892 26.7011C88.0041 26.7011 85.6291 22.5447 85.6291 15.997Z" fill="url(#paint10_linear)"/>
<path d="M124.739 5.05179C124.123 5.11335 123.102 5.1441 122.189 5.1441C121.05 5.1441 119.578 5.11335 118.737 5.05179V5.6675C121.666 6.07293 121.846 6.96064 121.846 11.0811V18.2343C121.846 22.9706 120.584 26.2034 116.459 26.2034C113.905 26.2034 112.612 24.9411 112.612 20.8821V8.31017C112.612 6.07294 113.002 5.75479 115.105 5.6675V5.05179C113.843 5.11335 111.71 5.1441 109.591 5.1441C107.478 5.1441 105.344 5.11335 104.19 5.05179V5.6675C106.067 5.75479 106.364 6.07294 106.364 8.31017V17.9829C106.364 21.7698 106.77 24.2637 108.888 25.798C110.525 26.968 112.792 27.2809 114.669 27.2809C118.224 27.2809 120.225 26.2034 121.292 24.4177C122.282 22.791 122.553 20.446 122.553 17.8905V10.4603C122.553 6.99145 122.866 6.07293 124.744 5.6675L124.739 5.05179Z" fill="url(#paint11_linear)"/>
<path d="M137 5.05179C135.795 5.11335 133.768 5.1441 131.86 5.1441C129.634 5.1441 127.546 5.11335 126.372 5.05179V5.66751C128.223 5.75479 128.567 6.07294 128.567 8.31017V23.5915C128.567 25.8288 128.249 26.1469 126.372 26.2341V26.8499C127.546 26.7884 129.634 26.7575 131.86 26.7575C133.768 26.7575 135.795 26.7884 137 26.8499V26.2341C135.148 26.1469 134.805 25.8288 134.805 23.5915V8.31017C134.805 6.07294 135.123 5.75479 137 5.66751V5.05179Z" fill="url(#paint12_linear)"/>
<path fill-rule="evenodd" clip-rule="evenodd" d="M16.1034 0C24.9971 0 32.2068 7.21237 32.2068 16.1092C32.2068 25.006 24.9971 32.2184 16.1034 32.2184C7.20973 32.2184 0 25.006 0 16.1092C0 7.21237 7.20973 0 16.1034 0ZM16.1034 1.30179C24.2784 1.30179 30.9055 7.93131 30.9055 16.1092C30.9055 24.2871 24.2784 30.9166 16.1034 30.9166C7.92842 30.9166 1.30126 24.2871 1.30126 16.1092C1.30126 7.93131 7.92842 1.30179 16.1034 1.30179Z" fill="#038308"/>
<path d="M24.0109 8.17165C24.4024 8.17165 24.7197 7.85421 24.7197 7.46262C24.7197 7.07104 24.4024 6.7536 24.0109 6.7536C23.6195 6.7536 23.3022 7.07104 23.3022 7.46262C23.3022 7.85421 23.6195 8.17165 24.0109 8.17165Z" fill="#FF7300"/>
<path d="M24.0109 25.4648C24.4024 25.4648 24.7197 25.1474 24.7197 24.7558C24.7197 24.3642 24.4024 24.0468 24.0109 24.0468C23.6195 24.0468 23.3022 24.3642 23.3022 24.7558C23.3022 25.1474 23.6195 25.4648 24.0109 25.4648Z" fill="#FF7300"/>
<path d="M8.19587 25.4648C8.58732 25.4648 8.90464 25.1474 8.90464 24.7558C8.90464 24.3642 8.58732 24.0468 8.19587 24.0468C7.80443 24.0468 7.4871 24.3642 7.4871 24.7558C7.4871 25.1474 7.80443 25.4648 8.19587 25.4648Z" fill="#FF7300"/>
<path d="M8.19587 8.17165C8.58732 8.17165 8.90464 7.85421 8.90464 7.46262C8.90464 7.07104 8.58732 6.7536 8.19587 6.7536C7.80443 6.7536 7.4871 7.07104 7.4871 7.46262C7.4871 7.85421 7.80443 8.17165 8.19587 8.17165Z" fill="#FF7300"/>
<path fill-rule="evenodd" clip-rule="evenodd" d="M11.7702 20.7394C11.7284 23.0745 12.7183 24.9166 14.032 26.5183C14.2562 26.7916 15.7939 28.1543 16.1004 28.1679C16.3608 28.1794 17.5861 27.1118 17.7603 26.9494C19.2674 25.5447 20.5262 23.0112 20.4447 20.7272C17.8242 20.6813 16.322 19.5823 16.094 19.5898C15.9995 19.5929 15.3396 19.939 15.1655 20.0152C14.8552 20.1509 14.5095 20.2688 14.1514 20.3753C13.2989 20.6289 12.6712 20.6432 11.7702 20.7394Z" fill="#FF4100"/>
<path fill-rule="evenodd" clip-rule="evenodd" d="M11.4905 20.4522C11.5051 19.6093 11.6239 18.8386 11.8456 18.0671C11.9497 17.7048 12.063 17.3829 12.2044 17.0546C12.2777 16.8847 12.6247 16.2234 12.6241 16.1078C12.6235 16.0099 12.2718 15.3211 12.203 15.161C11.7551 14.1192 11.5098 12.9252 11.4905 11.7654C9.13906 11.8034 6.77642 12.8471 5.28736 14.4205C5.12652 14.5904 4.05127 15.8505 4.04896 16.1083C4.04506 16.5348 5.47146 17.9904 6.03857 18.4689C6.27522 18.6686 6.60772 18.9123 6.90076 19.0899C8.20322 19.8792 9.63993 20.4219 11.4905 20.4522Z" fill="#FF4100"/>
<path fill-rule="evenodd" clip-rule="evenodd" d="M11.7674 11.4774C12.681 11.5772 13.2798 11.5901 14.1481 11.844C14.4983 11.9464 14.834 12.0615 15.1614 12.2027C16.8655 12.9375 15.4254 12.6361 18.0424 11.849C18.7883 11.6247 19.6258 11.5038 20.4493 11.4903C20.459 9.12123 19.3321 6.75412 17.7847 5.29508C17.6055 5.12612 16.3719 4.03851 16.1013 4.05048C15.8364 4.06225 14.605 5.11382 14.4333 5.27517C12.9061 6.71067 11.7742 9.14325 11.7674 11.4774Z" fill="#FF4100"/>
<path fill-rule="evenodd" clip-rule="evenodd" d="M20.7274 20.4292C22.0548 20.6451 24.3877 19.677 25.2563 19.1202C25.8948 18.7108 26.4477 18.2831 26.9074 17.8041C27.0866 17.6175 28.1602 16.411 28.1579 16.1078C28.1557 15.8117 27.11 14.6333 26.9306 14.4417C25.583 13.0029 22.5886 11.5013 20.7275 11.787C20.7029 13.0094 20.4635 14.1001 20.0054 15.1857C19.2671 16.9356 19.5953 15.4038 20.3691 18.0386C20.5885 18.7854 20.7114 19.6032 20.7274 20.4292Z" fill="#FF4100"/>
<path fill-rule="evenodd" clip-rule="evenodd" d="M16.0918 13.0035C15.4537 13.3508 14.7533 13.9336 14.3366 14.3517C14.1575 14.5314 12.9889 15.8311 13.0302 16.1489C13.0669 16.4325 14.1892 17.7257 14.3597 17.894C14.5156 18.048 15.8638 19.2324 16.1302 19.2011C16.7073 19.1333 19.202 16.6411 19.198 16.1082C19.1943 15.6226 17.0675 13.3834 16.0918 13.0035Z" fill="#FF4100"/>
<path fill-rule="evenodd" clip-rule="evenodd" d="M16.4083 19.4194C17.8962 20.0291 18.5707 20.418 20.4523 20.4522C20.4334 19.359 20.0017 17.1117 19.3877 16.431C18.9572 16.9068 18.8757 17.2512 18.0543 18.0696C17.807 18.316 17.5635 18.5257 17.2702 18.7686L16.4083 19.4194Z" fill="#FF4100"/>
<path fill-rule="evenodd" clip-rule="evenodd" d="M12.7844 15.8039C12.8254 15.772 13.6699 14.643 14.1469 14.1622C14.9349 13.3679 14.9691 13.4457 15.7917 12.8294C15.0898 12.3046 12.883 11.6894 11.7654 11.7788C11.7798 12.5312 11.8859 13.2854 12.0783 13.9685C12.3485 14.9278 12.6618 15.3898 12.7844 15.8039Z" fill="#FF4100"/>
<path fill-rule="evenodd" clip-rule="evenodd" d="M16.4181 12.7992C16.8058 13.1968 17.5781 13.447 18.7591 14.9236C18.9533 15.1663 19.1993 15.5906 19.3877 15.7781C20.0007 15.175 20.4332 12.8038 20.4525 11.7654C18.723 11.7959 17.7409 12.2109 16.4181 12.7992Z" fill="#FF4100"/>
<path fill-rule="evenodd" clip-rule="evenodd" d="M11.7654 20.438C12.8298 20.5276 15.0937 19.9189 15.7683 19.4031L15.3587 19.0932C15.1914 18.9749 15.0628 18.8832 14.9136 18.7668C14.3328 18.3139 13.5534 17.4973 13.1292 16.8735C13.0761 16.7953 13.0491 16.7408 12.9801 16.6373C12.9311 16.5637 12.972 16.6124 12.9104 16.5387C12.8297 16.4421 12.8685 16.4823 12.7865 16.4171C12.6553 16.8456 12.3509 17.2745 12.0811 18.2465C11.8904 18.9333 11.7804 19.681 11.7654 20.438Z" fill="#FF4100"/>
<defs>
<linearGradient id="paint0_linear" x1="103.388" y1="31.0333" x2="108.417" y2="31.0333" gradientUnits="userSpaceOnUse">
<stop stop-color="#038308"/>
<stop offset="1" stop-color="#035337"/>
</linearGradient>
<linearGradient id="paint1_linear" x1="109.043" y1="31.0502" x2="111.342" y2="31.0502" gradientUnits="userSpaceOnUse">
<stop stop-color="#038308"/>
<stop offset="1" stop-color="#035337"/>
</linearGradient>
<linearGradient id="paint2_linear" x1="111.255" y1="31.0502" x2="116.089" y2="31.0502" gradientUnits="userSpaceOnUse">
<stop stop-color="#038308"/>
<stop offset="1" stop-color="#035337"/>
</linearGradient>
<linearGradient id="paint3_linear" x1="116.143" y1="31.0502" x2="119.78" y2="31.0502" gradientUnits="userSpaceOnUse">
<stop stop-color="#038308"/>
<stop offset="1" stop-color="#035337"/>
</linearGradient>
<linearGradient id="paint4_linear" x1="120.399" y1="31.0502" x2="122.699" y2="31.0502" gradientUnits="userSpaceOnUse">
<stop stop-color="#038308"/>
<stop offset="1" stop-color="#035337"/>
</linearGradient>
<linearGradient id="paint5_linear" x1="122.611" y1="31.0502" x2="128.031" y2="31.0502" gradientUnits="userSpaceOnUse">
<stop stop-color="#038308"/>
<stop offset="1" stop-color="#035337"/>
</linearGradient>
<linearGradient id="paint6_linear" x1="127.896" y1="31.0502" x2="132.677" y2="31.0502" gradientUnits="userSpaceOnUse">
<stop stop-color="#038308"/>
<stop offset="1" stop-color="#035337"/>
</linearGradient>
<linearGradient id="paint7_linear" x1="132.22" y1="31.0501" x2="136.711" y2="31.0501" gradientUnits="userSpaceOnUse">
<stop stop-color="#038308"/>
<stop offset="1" stop-color="#035337"/>
</linearGradient>
<linearGradient id="paint8_linear" x1="37.4591" y1="15.9534" x2="56.977" y2="15.9534" gradientUnits="userSpaceOnUse">
<stop stop-color="#FF6200"/>
<stop offset="1" stop-color="#FF4100"/>
</linearGradient>
<linearGradient id="paint9_linear" x1="58.5022" y1="15.9509" x2="76.3223" y2="15.9509" gradientUnits="userSpaceOnUse">
<stop stop-color="#FF6200"/>
<stop offset="1" stop-color="#FF4100"/>
</linearGradient>
<linearGradient id="paint10_linear" x1="79.1658" y1="18.6294" x2="102.49" y2="18.6294" gradientUnits="userSpaceOnUse">
<stop stop-color="#FF6200"/>
<stop offset="1" stop-color="#FF4100"/>
</linearGradient>
<linearGradient id="paint11_linear" x1="104.19" y1="16.1664" x2="124.744" y2="16.1664" gradientUnits="userSpaceOnUse">
<stop stop-color="#FF6200"/>
<stop offset="1" stop-color="#FF4100"/>
</linearGradient>
<linearGradient id="paint12_linear" x1="126.372" y1="15.9509" x2="137" y2="15.9509" gradientUnits="userSpaceOnUse">
<stop stop-color="#FF6200"/>
<stop offset="1" stop-color="#FF4100"/>
</linearGradient>
</defs>
</svg>
